<svg width="24" height="24" viewBox="0 0 24 24" fill="none" xmlns="http://www.w3.org/2000/svg">
<g id="Icon/Fill/globe-2">
<path id="Mask" fill-rule="evenodd" clip-rule="evenodd" d="M16.8888 18.3185C16.7168 17.8855 16.4728 17.5075 16.2588 17.1845C16.1508 17.0225 16.0398 16.8575 15.9428 16.6875C15.5538 16.0115 15.6878 15.7375 16.3188 14.6805L16.4208 14.5075C16.9318 13.6465 16.9598 12.8205 16.9858 12.0925C16.9978 11.7345 17.0098 11.3975 17.0788 11.0805C17.2398 10.3485 18.7868 10.1535 19.7458 10.0385C19.9068 10.6675 19.9998 11.3225 19.9998 12.0005C19.9998 14.5695 18.7778 16.8535 16.8888 18.3185ZM11.9998 4.00049C12.6158 4.00049 13.2108 4.07649 13.7868 4.20849C13.6178 4.58049 13.3568 4.91949 13.0128 5.18849C12.7948 5.36049 12.5498 5.50349 12.3068 5.64849C11.6558 6.03649 10.9188 6.47649 10.4568 7.32249C9.84076 8.45249 9.84076 9.60649 9.84076 10.6245C9.84076 11.9795 9.79676 12.7805 8.89276 13.4875C7.52376 14.5605 5.42876 13.9615 4.13276 13.4165C4.05076 12.9555 3.99976 12.4835 3.99976 12.0005C3.99976 7.58949 7.58876 4.00049 11.9998 4.00049ZM11.9998 2.00049C6.48576 2.00049 1.99976 6.48649 1.99976 12.0005C1.99976 17.5135 6.48576 22.0005 11.9998 22.0005C17.5138 22.0005 21.9998 17.5135 21.9998 12.0005C21.9998 6.48649 17.5138 2.00049 11.9998 2.00049Z" fill="#282B31"/>
<mask id="mask0" mask-type="alpha" maskUnits="userSpaceOnUse" x="1" y="2" width="21" height="21">
<path id="Mask_2" fill-rule="evenodd" clip-rule="evenodd" d="M16.8888 18.3185C16.7168 17.8855 16.4728 17.5075 16.2588 17.1845C16.1508 17.0225 16.0398 16.8575 15.9428 16.6875C15.5538 16.0115 15.6878 15.7375 16.3188 14.6805L16.4208 14.5075C16.9318 13.6465 16.9598 12.8205 16.9858 12.0925C16.9978 11.7345 17.0098 11.3975 17.0788 11.0805C17.2398 10.3485 18.7868 10.1535 19.7458 10.0385C19.9068 10.6675 19.9998 11.3225 19.9998 12.0005C19.9998 14.5695 18.7778 16.8535 16.8888 18.3185ZM11.9998 4.00049C12.6158 4.00049 13.2108 4.07649 13.7868 4.20849C13.6178 4.58049 13.3568 4.91949 13.0128 5.18849C12.7948 5.36049 12.5498 5.50349 12.3068 5.64849C11.6558 6.03649 10.9188 6.47649 10.4568 7.32249C9.84076 8.45249 9.84076 9.60649 9.84076 10.6245C9.84076 11.9795 9.79676 12.7805 8.89276 13.4875C7.52376 14.5605 5.42876 13.9615 4.13276 13.4165C4.05076 12.9555 3.99976 12.4835 3.99976 12.0005C3.99976 7.58949 7.58876 4.00049 11.9998 4.00049ZM11.9998 2.00049C6.48576 2.00049 1.99976 6.48649 1.99976 12.0005C1.99976 17.5135 6.48576 22.0005 11.9998 22.0005C17.5138 22.0005 21.9998 17.5135 21.9998 12.0005C21.9998 6.48649 17.5138 2.00049 11.9998 2.00049Z" fill="white"/>
</mask>
<g mask="url(#mask0)">
<g id="&#240;&#159;&#142;&#168; Color">
<rect id="Base" width="24" height="24" fill="#282B31"/>
</g>
</g>
</g>
</svg>
