<svg width="24" height="24" viewBox="0 0 24 24" fill="none" xmlns="http://www.w3.org/2000/svg">
<g id="Icon/Fill/globe-2">
<path id="Mask" fill-rule="evenodd" clip-rule="evenodd" d="M16.8887 18.3185C16.7167 17.8855 16.4727 17.5075 16.2587 17.1845C16.1507 17.0225 16.0397 16.8575 15.9427 16.6875C15.5537 16.0115 15.6877 15.7375 16.3187 14.6805L16.4207 14.5075C16.9317 13.6465 16.9597 12.8205 16.9857 12.0925C16.9977 11.7345 17.0097 11.3975 17.0787 11.0805C17.2397 10.3485 18.7867 10.1535 19.7457 10.0385C19.9067 10.6675 19.9997 11.3225 19.9997 12.0005C19.9997 14.5695 18.7777 16.8535 16.8887 18.3185ZM11.9997 4.00049C12.6157 4.00049 13.2107 4.07649 13.7867 4.20849C13.6177 4.58049 13.3567 4.91949 13.0127 5.18849C12.7947 5.36049 12.5497 5.50349 12.3067 5.64849C11.6557 6.03649 10.9187 6.47649 10.4567 7.32249C9.84069 8.45249 9.84069 9.60649 9.84069 10.6245C9.84069 11.9795 9.79669 12.7805 8.89269 13.4875C7.52369 14.5605 5.42869 13.9615 4.13269 13.4165C4.05069 12.9555 3.99969 12.4835 3.99969 12.0005C3.99969 7.58949 7.5887 4.00049 11.9997 4.00049ZM11.9997 2.00049C6.48569 2.00049 1.99969 6.48649 1.99969 12.0005C1.99969 17.5135 6.48569 22.0005 11.9997 22.0005C17.5137 22.0005 21.9997 17.5135 21.9997 12.0005C21.9997 6.48649 17.5137 2.00049 11.9997 2.00049Z" fill="white"/>
<mask id="mask0" mask-type="alpha" maskUnits="userSpaceOnUse" x="1" y="2" width="21" height="21">
<path id="Mask_2" fill-rule="evenodd" clip-rule="evenodd" d="M16.8887 18.3185C16.7167 17.8855 16.4727 17.5075 16.2587 17.1845C16.1507 17.0225 16.0397 16.8575 15.9427 16.6875C15.5537 16.0115 15.6877 15.7375 16.3187 14.6805L16.4207 14.5075C16.9317 13.6465 16.9597 12.8205 16.9857 12.0925C16.9977 11.7345 17.0097 11.3975 17.0787 11.0805C17.2397 10.3485 18.7867 10.1535 19.7457 10.0385C19.9067 10.6675 19.9997 11.3225 19.9997 12.0005C19.9997 14.5695 18.7777 16.8535 16.8887 18.3185ZM11.9997 4.00049C12.6157 4.00049 13.2107 4.07649 13.7867 4.20849C13.6177 4.58049 13.3567 4.91949 13.0127 5.18849C12.7947 5.36049 12.5497 5.50349 12.3067 5.64849C11.6557 6.03649 10.9187 6.47649 10.4567 7.32249C9.84069 8.45249 9.84069 9.60649 9.84069 10.6245C9.84069 11.9795 9.79669 12.7805 8.89269 13.4875C7.52369 14.5605 5.42869 13.9615 4.13269 13.4165C4.05069 12.9555 3.99969 12.4835 3.99969 12.0005C3.99969 7.58949 7.5887 4.00049 11.9997 4.00049ZM11.9997 2.00049C6.48569 2.00049 1.99969 6.48649 1.99969 12.0005C1.99969 17.5135 6.48569 22.0005 11.9997 22.0005C17.5137 22.0005 21.9997 17.5135 21.9997 12.0005C21.9997 6.48649 17.5137 2.00049 11.9997 2.00049Z" fill="white"/>
</mask>
<g mask="url(#mask0)">
<g id="&#240;&#159;&#142;&#168; Color">
<rect id="Base" width="24" height="24" fill="white"/>
</g>
</g>
</g>
</svg>
