<svg width="30" height="30" viewBox="0 0 30 30" fill="none" xmlns="http://www.w3.org/2000/svg">
<rect width="30" height="30" rx="10" fill="#1750FF"/>
<path fill-rule="evenodd" clip-rule="evenodd" d="M19.6667 14.3332H15.6667V10.3332C15.6667 9.9645 15.3681 9.6665 15.0001 9.6665C14.6321 9.6665 14.3334 9.9645 14.3334 10.3332V14.3332H10.3334C9.96541 14.3332 9.66675 14.6312 9.66675 14.9998C9.66675 15.3685 9.96541 15.6665 10.3334 15.6665H14.3334V19.6665C14.3334 20.0352 14.6321 20.3332 15.0001 20.3332C15.3681 20.3332 15.6667 20.0352 15.6667 19.6665V15.6665H19.6667C20.0347 15.6665 20.3334 15.3685 20.3334 14.9998C20.3334 14.6312 20.0347 14.3332 19.6667 14.3332Z" fill="#231F20"/>
<mask id="mask0" mask-type="alpha" maskUnits="userSpaceOnUse" x="9" y="9" width="12" height="12">
<path fill-rule="evenodd" clip-rule="evenodd" d="M19.6667 14.3332H15.6667V10.3332C15.6667 9.9645 15.3681 9.6665 15.0001 9.6665C14.6321 9.6665 14.3334 9.9645 14.3334 10.3332V14.3332H10.3334C9.96541 14.3332 9.66675 14.6312 9.66675 14.9998C9.66675 15.3685 9.96541 15.6665 10.3334 15.6665H14.3334V19.6665C14.3334 20.0352 14.6321 20.3332 15.0001 20.3332C15.3681 20.3332 15.6667 20.0352 15.6667 19.6665V15.6665H19.6667C20.0347 15.6665 20.3334 15.3685 20.3334 14.9998C20.3334 14.6312 20.0347 14.3332 19.6667 14.3332Z" fill="white"/>
</mask>
<g mask="url(#mask0)">
<rect x="7" y="7" width="16" height="16" fill="white"/>
</g>
</svg>
