<svg width="50" height="50" viewBox="0 0 50 50" fill="none" xmlns="http://www.w3.org/2000/svg">
<circle cx="25" cy="25" r="25" fill="white"/>
<path fill-rule="evenodd" clip-rule="evenodd" d="M24.9831 17.9386L16.9401 24.4111C16.2951 24.9301 15.3516 24.8281 14.8311 24.1831C14.3121 23.5366 14.4141 22.5931 15.0591 22.0726L24.0591 14.8306C24.6156 14.3836 25.4106 14.3881 25.9596 14.8486L34.9596 22.3486C35.5971 22.8781 35.6826 23.8231 35.1516 24.4606C34.8546 24.8161 34.4286 25.0006 33.9996 25.0006C33.6606 25.0006 33.3201 24.8851 33.0396 24.6526L24.9831 17.9386ZM24.0594 25.3314C24.6159 24.8829 25.4109 24.8889 25.9599 25.3479L34.9599 32.8479C35.5959 33.3789 35.6814 34.3239 35.1519 34.9599C34.8549 35.3169 34.4289 35.4999 33.9984 35.4999C33.6609 35.4999 33.3204 35.3859 33.0399 35.1519L24.9834 28.4394L16.9404 34.9104C16.2954 35.4309 15.3519 35.3289 14.8314 34.6824C14.3109 34.0374 14.4144 33.0939 15.0594 32.5734L24.0594 25.3314Z" fill="#A6ADB1"/>
<mask id="mask0" mask-type="alpha" maskUnits="userSpaceOnUse" x="14" y="14" width="22" height="22">
<path fill-rule="evenodd" clip-rule="evenodd" d="M24.9831 17.9386L16.9401 24.4111C16.2951 24.9301 15.3516 24.8281 14.8311 24.1831C14.3121 23.5366 14.4141 22.5931 15.0591 22.0726L24.0591 14.8306C24.6156 14.3836 25.4106 14.3881 25.9596 14.8486L34.9596 22.3486C35.5971 22.8781 35.6826 23.8231 35.1516 24.4606C34.8546 24.8161 34.4286 25.0006 33.9996 25.0006C33.6606 25.0006 33.3201 24.8851 33.0396 24.6526L24.9831 17.9386ZM24.0594 25.3314C24.6159 24.8829 25.4109 24.8889 25.9599 25.3479L34.9599 32.8479C35.5959 33.3789 35.6814 34.3239 35.1519 34.9599C34.8549 35.3169 34.4289 35.4999 33.9984 35.4999C33.6609 35.4999 33.3204 35.3859 33.0399 35.1519L24.9834 28.4394L16.9404 34.9104C16.2954 35.4309 15.3519 35.3289 14.8314 34.6824C14.3109 34.0374 14.4144 33.0939 15.0594 32.5734L24.0594 25.3314Z" fill="white"/>
</mask>
<g mask="url(#mask0)">
<rect x="7" y="7" width="36" height="36" fill="#A6ADB1"/>
</g>
</svg>
